
<svg xmlns="http://www.w3.org/2000/svg" width="32" height="32" viewBox="0 0 32 32" fill="none">
  <path d="M16 2C8.268 2 2 8.268 2 16C2 23.732 8.268 30 16 30C23.732 30 30 23.732 30 16C30 8.268 23.732 2 16 2ZM16 4C22.617 4 28 9.383 28 16C28 22.617 22.617 28 16 28C9.383 28 4 22.617 4 16C4 9.383 9.383 4 16 4ZM16 8C11.582 8 8 11.582 8 16C8 20.418 11.582 24 16 24C20.418 24 24 20.418 24 16C24 11.582 20.418 8 16 8ZM16 10C19.309 10 22 12.691 22 16C22 19.309 19.309 22 16 22C12.691 22 10 19.309 10 16C10 12.691 12.691 10 16 10ZM16 14C14.895 14 14 14.895 14 16C14 17.105 14.895 18 16 18C17.105 18 18 17.105 18 16C18 14.895 17.105 14 16 14Z" fill="#7B1FA2"/>
</svg>
